<?xml version="1.0" encoding="utf-8"?>
<!-- Generator: Adobe Illustrator 25.0.1, SVG Export Plug-In . SVG Version: 6.00 Build 0)  -->
<svg version="1.0" id="katman_1" xmlns="http://www.w3.org/2000/svg" xmlns:xlink="http://www.w3.org/1999/xlink" x="0px" y="0px"
	 viewBox="0 0 1920 1080" style="enable-background:new 0 0 1920 1080;" xml:space="preserve">
<style type="text/css">
	.st0{fill:#1D1D1B;}
</style>
<g id="Layer_2">
	<g id="un_svg_map">
		<g id="un_logo_small">
			<path id="anchor" class="st0" d="M908.7,198.7c-0.2-28,22.3-50.9,50.4-51.2s50.9,22.3,51.2,50.4c0.2,28-22.3,50.9-50.4,51.2l0,0
				c-27.9,0.1-50.7-22.4-50.8-50.4c0,0,0,0,0,0l0,0 M1186.5,811.9l12.2,27.2c-63.9,21.3-129.7,36.3-196.6,44.7l-20.3-496.9
				l167.9-23.1L980,339.6l-2-52c49.4-10.1,81.3-58.4,71.3-107.8s-58.4-81.3-107.8-71.3c-49.4,10.1-81.3,58.4-71.3,107.8
				c7.3,35.9,35.4,63.9,71.3,71.3l-2,52l-168.9,24.2l167.9,23.1l-20.3,496.9c-66.8-8.4-132.7-23.3-196.6-44.7l12.2-27.2l-166.3-14.6
				l127.3,101.5l12.6-28.2l252.4,104l252.4-104.2l12.4,28.4L1352,797.3L1186.5,811.9z"/>
			<path id="U" class="st0" d="M848.8,522.2c-0.4-10,3.1-19.8,9.7-27.2h-77.2c7.3,8.7,10.7,20,9.3,31.3v98.1
				c0.2,9.1-3.3,17.9-9.7,24.4c-31.3,21.9-73,21.9-104.4,0c-6.5-6.7-10-15.7-9.7-25V522.2c-0.5-10.2,3.1-20.1,9.9-27.6h-76.6
				c7,7.8,10.5,18.2,9.7,28.6v100.1c-0.6,24.5,8.9,48.1,26.2,65.4c54,44.9,132.4,44.9,186.4,0c17.1-17.3,26.5-40.7,26-65
				L848.8,522.2z"/>
			<path id="N" class="st0" d="M1311.4,691.5V523c-0.5-10.3,3-20.4,9.9-28h-77.2c8.7,11.2,12.2,25.6,9.7,39.6l0,0v95.2l-118-134.8
				h-69.2c8.7,11.2,12.2,25.6,9.7,39.6l0,0v155.1c0.9,10.9-2.6,21.8-9.7,30.1h77.2c-8.8-11.2-12.4-25.6-9.9-39.6l0,0v-99.7
				l121.8,139.3h65c-6.9-7.7-10.4-17.9-9.7-28.2"/>
		</g>
	</g>
</g>
</svg>
